<svg xmlns="http://www.w3.org/2000/svg" xmlns:xlink="http://www.w3.org/1999/xlink" version="1.1" width="256" height="256" viewBox="0 0 256 256" xml:space="preserve">
<desc>Created with Fabric.js 1.7.22</desc>
<defs>
</defs>
<g transform="translate(128 128) scale(0.72 0.72)" style="">
	<g style="stroke: none; stroke-width: 0; stroke-dasharray: none; stroke-linecap: butt; stroke-linejoin: miter; stroke-miterlimit: 10; fill: none; fill-rule: nonzero; opacity: 1;" transform="translate(-175.05 -175.05000000000004) scale(3.89 3.89)" >
	<path d="M 69.726 78.71 h -46.13 C 10.585 78.71 0 68.125 0 55.115 c 0 -11.185 8.035 -20.892 18.894 -23.098 C 22.76 19.75 34.195 11.29 47.14 11.29 c 15.829 0 28.819 12.494 29.609 28.138 C 84.62 42.34 90 49.955 90 58.436 C 90 69.615 80.905 78.71 69.726 78.71 z" style="stroke: none; stroke-width: 1; stroke-dasharray: none; stroke-linecap: butt; stroke-linejoin: miter; stroke-miterlimit: 10; fill: rgb(249,168,38); fill-rule: nonzero; opacity: 1;" transform=" matrix(1 0 0 1 0 0) " stroke-linecap="round" />
	<path d="M 57.496 42.886 l -4.878 4.878 c -0.971 0.971 -2.632 0.283 -2.632 -1.09 v 0 V 27.602 c 0 -0.851 -0.69 -1.542 -1.542 -1.542 h -6.89 c -0.851 0 -1.542 0.69 -1.542 1.542 v 19.072 c 0 1.373 -1.66 2.061 -2.632 1.09 l -4.878 -4.878 c -0.602 -0.602 -1.578 -0.602 -2.18 0 l -4.872 4.872 c -0.602 0.602 -0.602 1.578 0 2.18 l 12.496 12.496 l 5.962 5.962 c 0.602 0.602 1.578 0.602 2.18 0 l 5.962 -5.962 l 12.496 -12.496 c 0.602 -0.602 0.602 -1.578 0 -2.18 l -4.872 -4.872 C 59.074 42.284 58.098 42.284 57.496 42.886 z" style="stroke: none; stroke-width: 1; stroke-dasharray: none; stroke-linecap: butt; stroke-linejoin: miter; stroke-miterlimit: 10; fill: rgb(255,255,255); fill-rule: nonzero; opacity: 1;" transform=" matrix(1 0 0 1 0 0) " stroke-linecap="round" />
</g>
</g>
</svg>